<?xml version="1.0" standalone="no"?>
<!DOCTYPE svg PUBLIC "-//W3C//DTD SVG 20010904//EN"
 "http://www.w3.org/TR/2001/REC-SVG-20010904/DTD/svg10.dtd">
<svg version="1.0" xmlns="http://www.w3.org/2000/svg"
 width="2289.000000pt" height="2289.000000pt" viewBox="0 0 2289.000000 2289.000000"
 preserveAspectRatio="xMidYMid meet">
<metadata>
Created by potrace 1.16, written by Peter Selinger 2001-2019
</metadata>
<g transform="translate(0.000000,2289.000000) scale(0.100000,-0.100000)"
fill="#000000" stroke="none">
<path d="M8117 21333 c-5 -4 -25 -8 -45 -9 -20 0 -61 -6 -91 -12 -29 -7 -72
-12 -94 -12 -22 0 -66 -6 -96 -14 -31 -8 -82 -19 -113 -24 -32 -6 -72 -17 -90
-25 -50 -22 -89 -36 -133 -46 -97 -23 -297 -118 -445 -213 -52 -34 -104 -66
-115 -72 -79 -44 -209 -151 -338 -277 -146 -142 -296 -319 -311 -367 -4 -12
-16 -27 -27 -32 -10 -6 -19 -15 -19 -21 0 -5 -12 -28 -27 -52 -44 -68 -50 -78
-94 -162 -81 -156 -76 -144 -126 -285 -8 -25 -18 -47 -22 -50 -4 -3 -15 -40
-26 -84 -29 -121 -15 -114 -264 -125 -154 -7 -216 -14 -222 -23 -4 -7 -11 -9
-15 -6 -4 4 -15 3 -25 -2 -9 -6 -46 -14 -81 -20 -35 -5 -83 -15 -108 -21 -133
-33 -169 -43 -205 -59 -22 -10 -56 -21 -75 -25 -46 -9 -305 -131 -340 -159 -8
-7 -40 -25 -70 -40 -65 -33 -264 -173 -329 -232 -25 -23 -75 -67 -110 -99 -75
-68 -170 -172 -236 -260 -9 -11 -34 -45 -57 -74 -56 -74 -134 -192 -167 -255
-15 -28 -39 -71 -52 -96 -14 -25 -33 -67 -43 -95 -10 -27 -25 -61 -34 -74 -17
-27 -92 -257 -92 -282 0 -9 -6 -29 -14 -45 -15 -31 -42 -162 -56 -279 -28
-227 -20 -619 16 -756 7 -31 14 -75 14 -97 l0 -41 -87 -42 c-49 -23 -110 -53
-138 -67 -27 -14 -77 -40 -110 -56 -33 -17 -100 -58 -149 -91 -49 -33 -110
-73 -135 -89 -144 -89 -499 -423 -633 -596 -78 -100 -274 -391 -283 -419 -3
-11 -17 -39 -30 -63 -14 -24 -38 -72 -55 -108 -16 -36 -34 -72 -38 -80 -40
-69 -74 -156 -93 -235 -6 -22 -16 -49 -23 -60 -7 -11 -23 -63 -36 -115 -12
-52 -26 -106 -31 -120 -4 -14 -11 -47 -14 -75 -4 -27 -14 -65 -22 -84 -8 -18
-19 -77 -24 -130 -5 -53 -13 -123 -19 -156 -30 -176 8 -836 51 -879 5 -6 9
-19 9 -30 0 -35 71 -310 91 -352 10 -22 19 -47 19 -54 0 -13 13 -50 51 -145 4
-11 21 -49 38 -85 49 -104 50 -120 4 -153 -58 -43 -144 -97 -153 -97 -4 0 -10
-7 -13 -15 -4 -8 -21 -21 -39 -28 -79 -34 -377 -301 -559 -502 -53 -59 -189
-230 -189 -238 0 -3 -11 -18 -25 -33 -14 -15 -25 -31 -25 -36 0 -5 -22 -42
-48 -81 -67 -98 -82 -124 -82 -138 0 -6 -8 -23 -18 -37 -37 -53 -155 -299
-166 -345 -4 -15 -18 -53 -33 -85 -25 -56 -39 -102 -68 -230 -8 -35 -19 -71
-24 -80 -14 -26 -48 -231 -67 -397 -25 -226 -12 -612 28 -840 5 -33 14 -82 18
-110 9 -52 13 -70 23 -95 3 -8 18 -62 32 -120 24 -100 36 -139 56 -185 26 -61
39 -99 39 -112 0 -14 47 -119 111 -246 16 -31 29 -64 29 -72 0 -8 4 -15 10
-15 5 0 21 -24 35 -54 23 -48 98 -170 125 -203 6 -7 10 -16 11 -20 1 -14 158
-221 193 -255 13 -13 39 -43 58 -68 35 -46 197 -207 298 -296 30 -27 57 -51
60 -55 18 -20 224 -168 274 -197 34 -19 70 -43 81 -53 11 -10 55 -34 97 -54
43 -20 80 -40 83 -45 3 -5 41 -22 85 -39 44 -17 98 -41 121 -52 l41 -22 -5
-56 c-3 -31 -10 -117 -17 -191 -6 -74 -15 -149 -21 -166 -12 -41 -12 -221 1
-229 5 -3 10 -45 10 -93 1 -48 5 -118 10 -157 21 -171 33 -243 46 -289 8 -27
14 -64 14 -81 0 -17 6 -39 14 -50 7 -11 21 -45 29 -75 39 -139 48 -163 76
-224 17 -35 31 -68 31 -73 0 -8 74 -156 123 -248 12 -22 37 -61 54 -87 18 -26
33 -50 33 -54 0 -11 123 -179 199 -272 115 -141 328 -345 466 -447 22 -16 61
-47 86 -67 25 -21 50 -38 56 -38 6 0 13 -6 16 -14 3 -7 27 -24 54 -36 26 -13
71 -38 99 -56 27 -19 68 -40 90 -49 21 -9 71 -31 109 -50 92 -44 131 -60 182
-76 24 -7 43 -17 43 -22 0 -6 3 -8 6 -4 4 3 23 -2 43 -13 20 -10 59 -23 87
-29 27 -6 82 -17 123 -26 41 -8 80 -20 87 -25 6 -6 36 -13 65 -16 30 -3 83
-13 119 -22 88 -22 635 -24 787 -3 118 16 126 13 145 -53 7 -22 18 -47 25 -54
7 -7 13 -21 13 -30 0 -8 8 -34 19 -56 10 -23 26 -61 36 -86 10 -25 24 -52 31
-60 6 -8 24 -41 39 -73 31 -67 118 -208 164 -265 17 -22 31 -45 31 -51 0 -6
15 -28 33 -48 19 -21 48 -60 66 -86 70 -104 499 -507 538 -507 6 0 13 -7 17
-15 3 -8 18 -21 33 -27 15 -7 55 -32 87 -56 33 -24 84 -55 113 -68 29 -14 53
-30 53 -35 0 -5 4 -9 10 -9 9 0 112 -46 205 -90 146 -71 351 -137 509 -165 43
-8 85 -20 94 -27 24 -20 1012 -19 1036 1 9 8 45 20 79 27 34 7 94 19 132 27
148 31 409 134 545 216 19 12 64 35 99 51 35 17 98 55 141 85 43 30 83 55 88
55 6 0 17 8 24 18 7 10 20 21 28 24 34 14 192 151 325 282 140 139 266 287
321 378 16 26 54 84 85 130 66 99 144 247 189 363 13 33 29 66 34 74 6 8 16
32 22 55 7 23 16 55 22 71 6 17 18 57 27 90 9 33 19 67 22 75 3 8 7 20 8 25 0
6 6 23 13 38 7 16 12 38 12 51 0 12 6 46 14 76 8 30 20 109 26 175 6 66 15
125 20 130 4 6 9 57 11 115 5 140 4 14810 0 14925 -2 50 -8 95 -12 101 -5 6
-13 64 -19 129 -6 65 -17 144 -25 176 -8 31 -15 67 -15 79 0 12 -9 42 -19 68
-10 26 -29 83 -41 127 -12 44 -26 84 -31 90 -5 5 -9 17 -9 28 0 10 -18 55 -40
101 -22 45 -40 86 -40 90 0 5 -16 34 -35 65 -19 32 -48 84 -65 117 -32 62 -72
121 -146 216 -24 31 -44 61 -44 67 0 6 -13 20 -30 33 -16 12 -30 27 -30 33 0
13 -221 240 -290 299 -25 21 -62 50 -82 64 -21 13 -38 29 -38 33 0 5 -5 9 -11
9 -6 0 -45 24 -87 54 -103 71 -194 122 -362 201 -30 14 -62 30 -70 35 -8 5
-62 23 -120 41 -58 17 -109 35 -115 39 -25 18 -206 54 -355 71 -52 6 -97 14
-100 18 -7 9 -50 12 -250 17 -97 3 -179 1 -183 -3z"/>
<path d="M14337 21333 c-4 -3 -23 -6 -42 -5 -19 1 -37 -3 -40 -8 -3 -4 -36
-11 -73 -15 -84 -8 -291 -52 -347 -75 -27 -11 -96 -34 -170 -56 -64 -19 -307
-134 -362 -171 -19 -13 -37 -23 -42 -23 -4 0 -16 -9 -26 -20 -10 -11 -22 -17
-27 -14 -5 4 -16 -3 -24 -15 -8 -12 -21 -21 -28 -21 -37 0 -324 -246 -456
-392 -102 -112 -256 -306 -267 -336 -4 -9 -26 -48 -50 -85 -25 -38 -49 -83
-55 -100 -6 -18 -17 -39 -24 -47 -7 -8 -13 -18 -13 -22 -1 -5 -15 -36 -31 -70
-17 -34 -30 -67 -30 -73 0 -6 -9 -29 -21 -50 -31 -60 -98 -290 -101 -345 -1
-8 -5 -18 -9 -21 -5 -3 -14 -43 -20 -90 -5 -46 -15 -106 -21 -134 -16 -66 -24
-14887 -9 -15135 14 -222 30 -376 43 -409 6 -14 12 -34 12 -43 1 -9 4 -20 9
-24 4 -4 7 -19 7 -32 0 -24 20 -102 42 -167 5 -16 13 -47 18 -67 4 -21 12 -44
19 -52 6 -7 23 -47 37 -87 24 -72 69 -171 122 -274 14 -27 40 -77 56 -110 34
-65 62 -108 144 -217 30 -39 63 -88 75 -109 12 -20 57 -77 100 -126 84 -94
315 -312 332 -313 6 0 23 -16 38 -35 15 -19 33 -35 38 -35 6 0 33 -17 59 -37
90 -70 191 -138 250 -168 106 -54 174 -88 220 -109 25 -12 52 -26 60 -32 8 -6
51 -23 94 -38 44 -15 89 -32 100 -39 12 -7 26 -12 31 -13 9 0 51 -12 190 -54
17 -4 55 -11 85 -15 30 -4 71 -14 90 -24 31 -14 90 -16 520 -16 430 0 489 2
520 16 19 10 64 20 100 24 36 4 73 11 82 16 10 5 37 13 60 18 24 5 75 21 113
36 39 14 86 31 105 37 19 5 39 14 44 19 6 5 17 9 26 9 9 0 34 9 55 21 22 11
70 33 107 49 37 16 111 54 164 84 53 31 100 56 105 56 4 0 9 3 11 8 2 4 32 27
68 51 36 24 109 79 162 122 53 44 99 79 102 79 3 0 31 26 64 58 32 31 77 74
100 95 23 21 42 41 42 45 0 4 25 31 55 61 30 29 55 56 55 59 0 2 24 35 53 71
80 99 157 203 157 212 0 5 15 30 34 56 18 27 49 77 67 113 19 36 36 67 39 70
9 9 80 165 80 177 0 6 7 13 15 17 8 3 15 12 15 21 0 26 50 159 65 174 13 13
26 13 97 2 117 -18 517 -26 666 -12 157 14 294 38 329 56 16 8 38 15 51 15 37
0 225 50 250 66 12 8 22 12 22 9 0 -3 13 1 28 9 15 8 57 24 92 36 36 11 77 30
92 41 15 10 51 28 81 39 29 11 80 36 113 56 32 20 80 47 106 60 26 13 87 54
135 90 48 37 110 83 137 101 63 45 93 72 251 226 73 70 145 146 161 169 16 23
41 54 57 69 15 15 27 30 27 34 0 3 19 32 43 63 69 91 156 219 166 245 5 13 29
57 54 99 25 42 48 87 52 100 4 13 21 50 37 83 16 33 41 96 55 140 14 44 31 94
39 110 24 52 74 259 89 370 4 28 11 55 16 61 38 47 39 850 1 897 -17 21 -24
75 -12 96 6 12 20 21 30 21 11 0 20 5 20 11 0 5 4 8 9 5 5 -3 14 1 21 9 7 8
19 15 26 15 8 0 31 9 51 20 21 11 45 20 53 20 9 0 22 6 28 12 7 7 48 33 91 58
43 25 102 59 130 75 29 17 109 72 178 123 69 50 128 92 132 92 3 0 26 20 51
44 25 25 107 104 183 178 75 73 137 136 137 139 0 4 15 23 33 42 83 88 279
357 260 357 -4 0 -3 4 2 8 14 9 96 138 117 182 54 116 64 136 74 150 17 23 84
193 84 213 0 9 4 17 9 17 5 0 21 39 36 88 14 48 35 114 45 147 34 111 48 170
60 244 6 41 13 78 16 82 3 5 9 61 15 126 6 65 15 124 22 131 16 20 16 500 0
510 -6 4 -14 48 -17 102 -8 111 -29 250 -57 370 -11 47 -22 94 -23 105 -2 11
-10 37 -20 57 -9 21 -16 44 -16 52 0 17 -43 153 -58 182 -15 31 -38 85 -62
149 -13 33 -28 67 -35 75 -7 8 -29 51 -51 95 -21 44 -53 104 -71 132 -18 29
-38 64 -43 78 -5 14 -17 28 -25 31 -8 4 -15 12 -15 19 0 14 -90 141 -165 231
-27 34 -57 71 -65 84 -8 13 -39 47 -67 77 -29 30 -53 59 -53 64 0 5 -7 9 -15
9 -8 0 -15 6 -15 13 0 12 -80 97 -91 97 -3 0 -32 26 -64 58 -32 31 -61 57 -64
57 -3 0 -16 9 -27 20 -23 21 -98 78 -218 165 -38 27 -87 59 -110 71 -22 11
-58 35 -78 52 -37 31 -37 33 -23 61 8 15 15 35 15 42 0 8 4 14 9 14 4 0 23 42
40 93 18 50 39 108 48 127 28 60 42 102 69 210 14 58 32 119 40 135 24 51 52
237 70 458 4 48 11 90 16 93 12 7 10 241 -2 249 -5 3 -10 32 -10 63 0 139 -56
546 -81 591 -5 9 -21 61 -35 116 -43 162 -53 197 -63 209 -5 6 -19 40 -31 76
-12 36 -32 85 -45 110 -43 86 -95 200 -95 210 0 6 -4 10 -9 10 -5 0 -21 25
-35 55 -13 30 -45 83 -70 119 -25 35 -46 68 -46 74 0 6 -17 32 -37 59 -21 27
-49 64 -62 83 -35 50 -158 194 -235 274 -36 38 -66 73 -66 78 0 4 -5 8 -11 8
-7 0 -44 31 -83 69 -141 136 -294 256 -416 326 -36 21 -73 45 -82 53 -10 8
-55 34 -100 57 -46 23 -96 49 -113 58 -16 9 -69 34 -117 57 l-88 40 0 41 c0
57 21 169 32 169 5 0 8 6 6 13 -1 6 4 84 11 172 9 118 10 190 2 275 -5 63 -11
142 -12 175 0 33 -5 65 -9 70 -4 6 -14 46 -20 90 -7 44 -19 103 -26 132 -8 28
-14 61 -14 74 0 12 -9 41 -19 63 -10 23 -29 73 -41 111 -12 39 -28 84 -36 102
-8 17 -14 35 -14 40 0 5 -14 35 -31 68 -17 33 -36 74 -43 90 -6 17 -45 84 -86
149 -41 65 -84 134 -95 153 -20 35 -117 150 -264 311 -60 67 -151 149 -236
214 -5 5 -33 26 -61 48 -29 22 -57 40 -63 40 -6 0 -16 9 -23 20 -7 11 -18 20
-23 20 -6 0 -29 13 -51 28 -63 46 -240 134 -297 148 -16 3 -31 13 -34 20 -3 8
-13 14 -22 14 -9 1 -34 9 -56 20 -22 11 -47 19 -55 20 -8 0 -28 8 -45 18 -43
26 -227 75 -325 87 -30 4 -61 12 -67 17 -7 6 -13 7 -13 3 0 -4 -6 -3 -13 3 -7
6 -112 15 -239 21 -124 6 -233 14 -242 17 -8 3 -18 16 -21 27 -28 105 -53 180
-86 252 -10 22 -32 76 -50 120 -18 44 -36 82 -40 85 -3 3 -16 27 -28 54 -11
27 -39 75 -61 107 -22 32 -40 62 -40 66 -1 26 -213 299 -277 357 -18 16 -33
36 -33 43 0 7 -3 13 -8 13 -4 0 -39 30 -77 66 -108 102 -350 291 -366 286 -4
0 -15 8 -24 18 -10 11 -23 20 -29 20 -6 0 -34 15 -62 33 -74 49 -269 141 -349
166 -38 12 -86 26 -105 32 -19 6 -48 17 -65 24 -30 13 -49 18 -195 49 -81 16
-232 37 -292 39 -21 0 -38 5 -38 9 0 10 -364 11 -373 1z"/>
</g>
</svg>
