<?xml version="1.0" standalone="no"?>
<!DOCTYPE svg PUBLIC "-//W3C//DTD SVG 20010904//EN"
 "http://www.w3.org/TR/2001/REC-SVG-20010904/DTD/svg10.dtd">
<svg version="1.0" xmlns="http://www.w3.org/2000/svg"
 width="179.000000pt" height="179.000000pt" viewBox="0 0 179.000000 179.000000"
 preserveAspectRatio="xMidYMid meet">
<metadata>
Created by potrace 1.14, written by Peter Selinger 2001-2017
</metadata>
<g transform="translate(0.000000,179.000000) scale(0.100000,-0.100000)"
fill="#000000" stroke="none">
<path d="M1030 1498 c-25 -13 -55 -38 -67 -57 l-23 -34 0 -483 c0 -317 4 -492
11 -511 14 -38 57 -83 96 -99 75 -32 176 -3 214 60 16 28 27 34 66 40 88 12
145 68 159 156 6 36 16 52 47 79 47 42 67 84 67 147 0 56 -22 106 -62 139 -27
23 -28 27 -18 65 19 70 -25 175 -86 202 -18 9 -24 19 -24 45 0 44 -32 105 -65
127 -15 10 -42 20 -62 23 -23 4 -37 13 -43 27 -13 34 -60 75 -99 86 -51 14
-61 13 -111 -12z"/>
<path d="M619 1486 c-20 -13 -42 -38 -48 -54 -9 -22 -21 -31 -47 -35 -71 -12
-124 -72 -124 -144 -1 -32 -6 -41 -33 -58 -65 -41 -99 -125 -80 -197 9 -34 8
-39 -20 -65 -36 -34 -66 -97 -67 -139 0 -45 44 -125 85 -153 29 -19 35 -30 35
-58 0 -42 31 -105 66 -132 30 -23 99 -45 119 -37 8 3 24 -12 40 -35 83 -127
281 -91 312 57 7 30 10 822 4 957 -1 17 -15 43 -40 69 -36 39 -42 42 -102 46
-55 3 -69 0 -100 -22z"/>
</g>
</svg>
